<?xml version="1.0" encoding="UTF-8" standalone="no"?>
<svg
   xmlns:dc="http://purl.org/dc/elements/1.1/"
   xmlns:cc="http://creativecommons.org/ns#"
   xmlns:rdf="http://www.w3.org/1999/02/22-rdf-syntax-ns#"
   xmlns:svg="http://www.w3.org/2000/svg"
   xmlns="http://www.w3.org/2000/svg"
   xmlns:sodipodi="http://sodipodi.sourceforge.net/DTD/sodipodi-0.dtd"
   xmlns:inkscape="http://www.inkscape.org/namespaces/inkscape"
   viewBox="0 0 49.414665 49.414665"
   height="49.414665"
   width="49.414665"
   xml:space="preserve"
   id="svg2"
   version="1.1"
   inkscape:version="0.91 r13725"
   sodipodi:docname="button_b.svg"><sodipodi:namedview
     pagecolor="#ffffff"
     bordercolor="#666666"
     borderopacity="1"
     objecttolerance="10"
     gridtolerance="10"
     guidetolerance="10"
     inkscape:pageopacity="0"
     inkscape:pageshadow="2"
     inkscape:window-width="640"
     inkscape:window-height="480"
     id="namedview18"
     showgrid="false"
     inkscape:zoom="4.7759101"
     inkscape:cx="24.707333"
     inkscape:cy="24.707333"
     inkscape:window-x="65"
     inkscape:window-y="24"
     inkscape:window-maximized="0"
     inkscape:current-layer="svg2" /><metadata
     id="metadata8"><rdf:RDF><cc:Work
         rdf:about=""><dc:format>image/svg+xml</dc:format><dc:type
           rdf:resource="http://purl.org/dc/dcmitype/StillImage" /><dc:title /></cc:Work></rdf:RDF></metadata><defs
     id="defs6"><clipPath
       id="clipPath18"
       clipPathUnits="userSpaceOnUse"><path
         id="path16"
         d="M 0,37.061 H 37.061 V 0 H 0 Z" /></clipPath></defs><g
     transform="matrix(1.3333333,0,0,-1.3333333,0,49.414667)"
     id="g10"
     style="fill:#ffffff"><g
       id="g12"
       style="fill:#ffffff"><g
         clip-path="url(#clipPath18)"
         id="g14"
         style="fill:#ffffff"><g
           transform="translate(30.2305,14.1137)"
           id="g20"
           style="fill:#ffffff"><path
             id="path22"
             style="fill:#ffffff;fill-opacity:1;fill-rule:nonzero;stroke:none"
             d="m 0,0 c -2.826,0 -5.118,2.292 -5.118,5.119 0,2.826 2.292,5.117 5.118,5.117 2.827,0 5.118,-2.291 5.118,-5.117 C 5.118,2.292 2.827,0 0,0 m -10.77,8.397 c -2.827,0 -5.118,2.292 -5.118,5.119 0,2.826 2.291,5.118 5.118,5.118 2.827,0 5.118,-2.292 5.118,-5.118 0,-2.827 -2.291,-5.119 -5.118,-5.119 m -1.844,-18.314 c -2.827,0 -5.118,2.292 -5.118,5.118 0,2.827 2.291,5.118 5.118,5.118 2.826,0 5.118,-2.291 5.118,-5.118 0,-2.826 -2.292,-5.118 -5.118,-5.118 m -10.639,8.611 c -2.827,0 -5.118,2.291 -5.118,5.119 0,2.826 2.291,5.117 5.118,5.117 2.827,0 5.118,-2.291 5.118,-5.117 0,-2.828 -2.291,-5.119 -5.118,-5.119 m 11.623,24.253 c -10.216,0 -18.498,-8.281 -18.498,-18.498 0,-10.216 8.282,-18.498 18.498,-18.498 10.216,0 18.498,8.282 18.498,18.498 0,10.217 -8.282,18.498 -18.498,18.498" /></g><g
           transform="translate(33.8848,19.2324)"
           id="g24"
           style="fill:#ffffff"><path
             id="path26"
             style="fill:#ffffff;fill-opacity:1;fill-rule:nonzero;stroke:none"
             d="m 0,0 c 0,-2.019 -1.636,-3.655 -3.654,-3.655 -2.019,0 -3.655,1.636 -3.655,3.655 0,2.018 1.636,3.654 3.655,3.654 C -1.636,3.654 0,2.018 0,0" /></g><g
           transform="translate(10.7891,17.9262)"
           id="g28"
           style="fill:#ffffff"><path
             id="path30"
             style="fill:#ffffff;fill-opacity:1;fill-rule:nonzero;stroke:none"
             d="m 0,0 c 0,-2.105 -1.707,-3.813 -3.812,-3.813 -2.105,0 -3.812,1.708 -3.812,3.813 0,2.105 1.707,3.812 3.812,3.812 C -1.707,3.812 0,2.105 0,0" /></g><g
           transform="translate(23.0732,27.5258)"
           id="g32"
           style="fill:#ffffff"><path
             id="path34"
             style="fill:#ffffff;fill-opacity:1;fill-rule:nonzero;stroke:none"
             d="m 0,0 c 0,-1.999 -1.621,-3.619 -3.619,-3.619 -1.999,0 -3.619,1.62 -3.619,3.619 0,1.999 1.62,3.619 3.619,3.619 C -1.621,3.619 0,1.999 0,0" /></g></g></g></g></svg>