<svg xmlns="http://www.w3.org/2000/svg" width="21.962" height="21.959"><path fill="#777" d="M17.71 1.5a2.754 2.754 0 0 1 2.752 2.752v13.455a2.754 2.754 0 0 1-2.752 2.752H4.252A2.754 2.754 0 0 1 1.5 17.707V4.252A2.754 2.754 0 0 1 4.252 1.5H17.71m0-1.5H4.252A4.265 4.265 0 0 0 0 4.252v13.455a4.265 4.265 0 0 0 4.252 4.252H17.71a4.264 4.264 0 0 0 4.252-4.252V4.252A4.265 4.265 0 0 0 17.71 0z"/><path fill="#777" d="M17.452 3.449l1.06 1.06-14 14-1.06-1.06z"/><path fill="#777" d="M17.452 3.449l1.06 1.06-14 14-1.06-1.06z"/><path fill="#777" d="M4.51 3.45l14.001 14-1.06 1.06-14-14z"/><path d="M3.793 21.916c-1.86-.21-3.396-1.662-3.714-3.513-.047-.278-.053-1.024-.053-7.422 0-7.686-.007-7.328.17-7.926A4.28 4.28 0 0 1 2.914.243c.698-.232.041-.215 8.067-.215 6.951 0 7.232.002 7.517.062 1.542.324 2.74 1.386 3.238 2.87.213.635.203.212.192 8.17l-.01 7.222-.09.34c-.438 1.651-1.695 2.843-3.362 3.187-.24.05-.888.055-7.337.061-4.025.003-7.186-.007-7.336-.024zm14.36-1.477a2.896 2.896 0 0 0 1.452-.715c.371-.344.65-.821.792-1.356l.075-.28V3.845l-.079-.28c-.243-.866-.826-1.538-1.625-1.87-.52-.215-.024-.202-7.787-.202-6.298 0-7.07.006-7.296.052a2.763 2.763 0 0 0-1.407.776 2.75 2.75 0 0 0-.716 1.261l-.072.263V18.09l.075.28c.083.311.245.676.407.912.411.6 1.1 1.035 1.832 1.159.242.04 14.094.04 14.349-.001z" fill="#fff"/><path d="M3.99 17.973l-.526-.526 3.24-3.24 3.24-3.24-3.232-3.233L3.48 4.502l.51-.51.51-.51 3.233 3.233 3.232 3.232 3.24-3.24 3.24-3.241.526.526.527.527-3.24 3.24-3.24 3.24 3.232 3.233 3.232 3.232-.51.51-.51.509-3.233-3.232-3.231-3.232-3.241 3.24-3.24 3.241-.527-.527z" fill="#fff"/></svg>