<svg xmlns="http://www.w3.org/2000/svg" width="43.916" height="21.959"><path fill="#fff" d="M29.291 15.69h1.934v-4.113h5.42v-1.479h-5.42V7.704h5.729V6.225h-7.662v9.465zm-9.481 0h1.936v-4.113h5.416v-1.479h-5.416V7.704h5.725V6.225h-7.66v9.465zm-7.432-1.217c-2.166 0-3.404-1.435-3.404-3.517 0-2.083 1.238-3.518 3.404-3.518 2.167 0 3.406 1.435 3.406 3.518 0 2.082-1.239 3.517-3.406 3.517m0 1.483c3.896 0 5.419-2.335 5.419-5s-1.522-4.997-5.419-4.997c-3.896 0-5.416 2.332-5.416 4.997s1.52 5 5.416 5"/><path fill="#fff" d="M39.664 1.5a2.754 2.754 0 0 1 2.752 2.752v13.455a2.754 2.754 0 0 1-2.752 2.752H4.252A2.754 2.754 0 0 1 1.5 17.707V4.252A2.754 2.754 0 0 1 4.252 1.5h35.412m0-1.5H4.252A4.265 4.265 0 0 0 0 4.252v13.455a4.265 4.265 0 0 0 4.252 4.252h35.412a4.264 4.264 0 0 0 4.252-4.252V4.252A4.265 4.265 0 0 0 39.664 0z"/></svg>