<svg xmlns="http://www.w3.org/2000/svg" width="43.916" height="21.959"><g fill="#fff"><path d="M15.754 7.461c-2.319 0-3.643 1.434-3.643 3.518 0 2.083 1.325 3.521 3.643 3.521 2.32 0 3.644-1.437 3.645-3.521 0-2.084-1.325-3.518-3.645-3.518z"/><path d="M39.664 0H4.252A4.265 4.265 0 0 0 0 4.252v13.455a4.265 4.265 0 0 0 4.252 4.252h35.412a4.264 4.264 0 0 0 4.252-4.252V4.252A4.265 4.265 0 0 0 39.664 0zm-23.91 15.979c-4.168 0-5.796-2.334-5.796-5 0-2.669 1.628-5.001 5.796-5.001 4.17 0 5.798 2.332 5.798 5.001 0 2.665-1.628 5-5.798 5zm18.203-.264h-2.332L25.72 8.602h-.027v7.113h-1.988V6.244h2.373l5.865 7.114h.027V6.244h1.987v9.471z"/></g></svg>