<svg xmlns="http://www.w3.org/2000/svg" width="64" height="64" viewBox="0 0 64 64"><path fill="none" stroke="#fff" stroke-linejoin="round" stroke-width="2" d="M12 4h40a8 8 90 0 1 8 8v40a8 8 90 0 1-8 8H12a8 8 90 0 1-8-8V12a8 8 90 0 1 8-8Z"/><path fill="#fff" d="M12 4a8 8 0 0 0-8 8v40a8 8 0 0 0 8 8h40a8 8 0 0 0 8-8V12a8 8 0 0 0-8-8zm21.039 12.3027c2.206 0 3.8948.6345 5.0665 1.9043s1.7578 3.096 1.7578 5.4785c0 2.3761-.5894 4.2041-1.7676 5.4805s-2.867 1.914-5.0664 1.914-3.8882-.6376-5.0664-1.914-1.7676-3.1108-1.7676-5.5q.0001-3.5836 1.7676-5.4687 1.777-1.8948 5.0762-1.8946M12 16.5293h3.043v5.625h5.6855v-5.625h3.0332v14.3535h-3.0332v-6.1953H15.043v6.1953H12zm29.1602 0H52v2.5332h-3.8984v11.8203h-3.043V19.0625h-3.8984zm-8.1114 2.3066c-1.211 0-2.123.4104-2.7383 1.2286-.6152.8116-.9238 2.0174-.9238 3.621 0 3.227 1.2142 4.8418 3.6426 4.8418s3.6426-1.6148 3.6426-4.8418c0-3.2335-1.2077-4.8496-3.623-4.8496M12 33.3418h3.4258v6.5684l1.3496-1.6875 4.377-4.8809h3.8007l-5.6367 6.3535 5.6816 8.002h-3.8906l-4.2324-6.0489-1.4492.9239v5.125H12zm15.125 0h9.3066v2.4941h-5.8789v3.1524h5.459v2.4941h-5.459v3.7012h5.879v2.5137H27.125zm10.75 0h3.7129l3.3496 5.9121 3.371-5.9121H52l-5.3613 8.7676v5.5879h-3.4043V42.209z"/></svg>