<?xml version="1.0" encoding="UTF-8" standalone="no"?>
<svg
   viewBox="0 0 49.414665 49.414665"
   height="49.414665"
   width="49.414665"
   xml:space="preserve"
   id="svg2"
   version="1.1"
   inkscape:version="1.1.1 (3bf5ae0d25, 2021-09-20)"
   sodipodi:docname="F3.svg"
   xmlns:inkscape="http://www.inkscape.org/namespaces/inkscape"
   xmlns:sodipodi="http://sodipodi.sourceforge.net/DTD/sodipodi-0.dtd"
   xmlns="http://www.w3.org/2000/svg"
   xmlns:svg="http://www.w3.org/2000/svg"
   xmlns:rdf="http://www.w3.org/1999/02/22-rdf-syntax-ns#"
   xmlns:cc="http://creativecommons.org/ns#"
   xmlns:dc="http://purl.org/dc/elements/1.1/"><sodipodi:namedview
     pagecolor="#ffffff"
     bordercolor="#666666"
     borderopacity="1"
     objecttolerance="10"
     gridtolerance="10"
     guidetolerance="10"
     inkscape:pageopacity="0"
     inkscape:pageshadow="2"
     inkscape:window-width="1855"
     inkscape:window-height="1056"
     id="namedview18"
     showgrid="false"
     inkscape:zoom="13.508314"
     inkscape:cx="26.95176"
     inkscape:cy="28.534337"
     inkscape:window-x="65"
     inkscape:window-y="24"
     inkscape:window-maximized="1"
     inkscape:current-layer="g14"
     inkscape:pagecheckerboard="0" /><metadata
     id="metadata8"><rdf:RDF><cc:Work
         rdf:about=""><dc:format>image/svg+xml</dc:format><dc:type
           rdf:resource="http://purl.org/dc/dcmitype/StillImage" /><dc:title /></cc:Work></rdf:RDF></metadata><defs
     id="defs6"><clipPath
       id="clipPath18"
       clipPathUnits="userSpaceOnUse"><path
         id="path16"
         d="M 0,37.061 H 37.061 V 0 H 0 Z" /></clipPath></defs><g
     transform="matrix(1.3333333,0,0,-1.3333333,0,49.414667)"
     id="g10"><g
       id="g12"><g
         clip-path="url(#clipPath18)"
         id="g14"><path
           id="rect4227"
           style="fill:#f6ffd5;fill-opacity:1;stroke-width:1.33333"
           d="M -0.09960937,1.4042969 V 6.5527344 50.400391 H 50.78125 V 1.4042969 H 5.5527344 2.7382812 Z M 35.705078,11.382812 c 1.536149,0 2.887806,0.170042 4.054688,0.509766 1.166881,0.324955 2.142936,0.797601 2.925781,1.417969 0.782845,0.620368 1.372677,1.373526 1.771484,2.259765 0.398808,0.88624 0.59961,1.882436 0.59961,2.990235 0,1.654314 -0.428459,3.043445 -1.285157,4.166015 -0.841928,1.12257 -2.00145,2.015008 -3.478515,2.679688 0.753303,0.118165 1.491081,0.354488 2.214843,0.708984 0.738534,0.354496 1.396602,0.813716 1.972657,1.375 0.590826,0.546515 1.063473,1.195915 1.417969,1.949219 0.369266,0.753303 0.552734,1.588125 0.552734,2.503906 0,1.270277 -0.258417,2.467273 -0.775391,3.589844 -0.516973,1.107799 -1.292226,2.081901 -2.326172,2.923828 -1.033946,0.827157 -2.332747,1.485225 -3.898437,1.972657 -1.56569,0.472661 -3.389993,0.708984 -5.472656,0.708984 -1.152111,0 -2.187735,-0.03748 -3.103516,-0.111328 -0.915781,-0.07385 -1.770744,-0.170898 -2.568359,-0.289063 v -3.455078 c 0.91578,0.162477 1.883167,0.288329 2.902343,0.376953 1.019175,0.08862 2.059559,0.132813 3.123047,0.132813 1.447525,0 2.681996,-0.125852 3.701172,-0.376953 1.033946,-0.265872 1.875481,-0.643428 2.525391,-1.13086 0.649908,-0.487431 1.122555,-1.077263 1.417968,-1.771484 0.295414,-0.694221 0.44336,-1.478141 0.44336,-2.34961 0,-0.797615 -0.178707,-1.491204 -0.533203,-2.082031 -0.354495,-0.590826 -0.85595,-1.085567 -1.50586,-1.484375 -0.635138,-0.398808 -1.403677,-0.6947 -2.304687,-0.886718 -0.88624,-0.20679 -1.860341,-0.310547 -2.923828,-0.310547 h -3.300782 v -3.167969 h 3.345704 c 0.871468,0 1.660148,-0.110471 2.36914,-0.332031 0.723762,-0.23633 1.337641,-0.567745 1.839844,-0.996094 0.516973,-0.428349 0.907956,-0.953851 1.173828,-1.574219 0.280643,-0.635138 0.421875,-1.350821 0.421875,-2.148437 0,-1.550919 -0.472646,-2.681633 -1.417969,-3.390625 -0.945321,-0.708992 -2.334453,-1.0625 -4.166015,-1.0625 -0.974863,0 -1.979725,0.09509 -3.013672,0.287109 -1.033946,0.192019 -2.140613,0.481197 -3.322266,0.865234 v -3.36914 c 0.502202,-0.177248 1.032465,-0.331908 1.59375,-0.464844 0.576056,-0.147707 1.145747,-0.264892 1.707031,-0.353516 0.576056,-0.103393 1.143793,-0.178344 1.705079,-0.222656 0.561285,-0.05908 1.100215,-0.08789 1.617187,-0.08789 z M 5.5019531,11.818359 H 22.259766 v 3.320313 H 9.4472656 v 8.59375 H 21.009766 v 3.320312 H 9.4472656 V 40.978516 H 5.5019531 Z"
           transform="matrix(0.75000002,0,0,-0.75000002,0,37.061001)" /></g></g></g></svg>
